<svg width="308" height="308" viewBox="0 0 308 308" fill="none" xmlns="http://www.w3.org/2000/svg">
<path opacity="0.56" fill-rule="evenodd" clip-rule="evenodd" d="M150.487 65.3644C144.026 80.1203 141.362 86.3761 141.362 86.7899C141.362 87.027 147.041 87.2208 153.982 87.2208C166.296 87.2208 166.587 87.1851 166.021 85.7296C164.181 81.0009 154.612 59.5351 154.118 59.0266C153.793 58.6926 152.159 61.5446 150.487 65.3644ZM105.817 72.8676C106.021 73.7899 106.898 80.7526 107.768 88.3393C108.638 95.926 109.431 102.217 109.531 102.319C109.631 102.421 112.712 100.548 116.379 98.1576C120.045 95.7672 125.03 92.945 127.456 91.8862L131.866 89.9618L119.232 80.5841C112.284 75.4266 106.34 71.2034 106.024 71.1981C105.707 71.1937 105.615 71.9453 105.817 72.8676ZM188.834 80.2015C182.255 85.107 176.791 89.3645 176.694 89.662C176.595 89.9595 179.454 91.6006 183.048 93.3081C186.641 95.0156 191.405 97.7818 193.636 99.455C195.865 101.128 197.842 102.344 198.029 102.158C198.296 101.892 201.84 74.0666 201.902 71.7492C201.933 70.58 200.463 71.5307 188.834 80.2015ZM146.759 98.1472C133.999 99.7749 123.782 104.954 114.042 114.732C108.347 120.449 106.735 122.636 103.823 128.603C101.921 132.499 99.8328 137.889 99.1831 140.581C97.4951 147.57 97.6199 160.43 99.444 167.544C102.368 178.946 109.537 190.001 118.735 197.291C137.546 212.201 162.136 213.834 183.047 201.566C188.529 198.35 198.584 188.321 201.808 182.854C209.658 169.545 211.943 154.134 208.232 139.535C201.465 112.927 174.298 94.6353 146.759 98.1472ZM71.0878 106.194C71.0878 106.437 75.3499 112.33 80.5598 119.29C86.4389 127.144 90.1634 131.522 90.3795 130.832C91.3738 127.653 97.0039 117.292 99.6242 113.819C101.273 111.636 102.505 109.732 102.363 109.59C101.868 109.097 71.0878 105.754 71.0878 106.194ZM221.416 107.409C213.433 108.369 206.432 109.253 205.86 109.373C205.142 109.522 205.788 110.864 207.935 113.69C209.649 115.946 212.54 120.811 214.36 124.502C216.18 128.193 217.774 131.213 217.902 131.213C218.142 131.213 235.541 108.107 236.572 106.421C236.885 105.908 236.87 105.527 236.537 105.575C236.204 105.623 229.4 106.448 221.416 107.409ZM72.3483 147.203C65.0241 150.384 59.0172 153.287 59 153.652C58.9761 154.144 79.2897 163.407 86.4135 166.152C86.8935 166.337 87.1611 161.942 87.1611 153.859C87.1611 145.923 86.8852 141.305 86.4135 141.349C86.0023 141.387 79.6732 144.022 72.3483 147.203ZM220.89 147.554C221.332 151.562 221.31 156.073 220.831 160.043C220.418 163.461 220.139 166.337 220.21 166.434C220.359 166.639 247.358 155.086 248.927 154.147C249.627 153.729 245.272 151.541 235.471 147.386C227.501 144.008 220.805 141.251 220.589 141.261C220.375 141.27 220.51 144.102 220.89 147.554ZM80.1464 188.69C75.0972 195.491 71.0931 201.182 71.2478 201.336C71.5872 201.675 101.666 198.267 102.093 197.841C102.259 197.677 100.595 194.931 98.3967 191.741C96.198 188.55 93.4768 183.776 92.3501 181.131C91.2228 178.487 90.0812 176.323 89.8136 176.323C89.5452 176.323 85.1949 181.888 80.1464 188.69ZM215.824 180.037C215.088 182.081 212.378 186.94 209.803 190.836L205.121 197.918L207.444 198.292C211.907 199.011 236.515 201.714 236.719 201.508C237.058 201.167 218.311 176.323 217.715 176.323C217.412 176.323 216.561 177.994 215.824 180.037ZM107.526 220.526C106.475 229.226 105.689 236.422 105.779 236.515C105.909 236.65 130.566 218.625 131.517 217.7C131.653 217.568 128.812 216.081 125.205 214.394C121.597 212.708 116.944 210.058 114.865 208.505C112.786 206.952 110.714 205.461 110.261 205.193C109.695 204.858 108.842 209.639 107.526 220.526ZM191.665 209.059C188.288 211.354 183.495 214.07 181.015 215.095C178.535 216.12 176.598 217.24 176.71 217.582C177.031 218.559 201.52 236.699 201.73 236.116C201.958 235.484 198.374 205.326 198.04 205.069C197.911 204.969 195.042 206.764 191.665 209.059ZM141.338 220.297C141.283 221.237 153.644 249.322 153.97 248.997C154.495 248.475 166.819 220.096 166.594 219.93C166.491 219.853 163.602 220.127 160.175 220.538C156.195 221.016 151.672 221.038 147.653 220.597C144.193 220.218 141.351 220.083 141.338 220.297Z" fill="#9305F1"/>
<circle opacity="0.2" cx="154" cy="154" r="151.5" stroke="#C110FF" stroke-width="5"/>
</svg>
