<svg width="544" height="544" viewBox="0 0 544 544" fill="none" xmlns="http://www.w3.org/2000/svg">
<path fill-rule="evenodd" clip-rule="evenodd" d="M265.787 115.255C254.362 141.35 249.65 152.412 249.651 153.144C249.651 153.564 259.694 153.906 271.968 153.906C293.745 153.906 294.259 153.843 293.258 151.269C290.004 142.907 273.082 104.946 272.208 104.047C271.633 103.456 268.744 108.5 265.787 115.255ZM186.793 128.524C187.152 130.155 188.704 142.468 190.243 155.884C191.781 169.301 193.183 180.426 193.359 180.606C193.536 180.787 198.986 177.475 205.469 173.247C211.954 169.02 220.77 164.029 225.058 162.157L232.857 158.753L210.516 142.17C198.228 133.049 187.717 125.581 187.158 125.571C186.598 125.564 186.434 126.893 186.793 128.524ZM333.601 141.493C321.967 150.168 312.305 157.697 312.132 158.223C311.957 158.749 317.014 161.652 323.369 164.671C329.723 167.691 338.149 172.583 342.092 175.542C346.035 178.5 349.531 180.651 349.862 180.321C350.334 179.851 356.601 130.644 356.71 126.546C356.766 124.478 354.167 126.16 333.601 141.493ZM259.195 173.229C236.63 176.107 218.562 185.266 201.337 202.558C191.267 212.667 188.415 216.536 183.265 227.087C179.902 233.977 176.21 243.509 175.061 248.269C172.075 260.629 172.296 283.371 175.522 295.951C180.693 316.115 193.371 335.665 209.637 348.557C242.902 374.923 286.387 377.812 323.368 356.117C333.061 350.429 350.843 332.695 356.545 323.027C370.427 299.49 374.468 272.237 367.904 246.42C355.938 199.366 307.895 167.018 259.195 173.229ZM125.376 187.459C125.376 187.889 132.913 198.309 142.127 210.618C152.524 224.507 159.11 232.25 159.492 231.03C161.25 225.407 171.207 207.084 175.841 200.944C178.756 197.082 180.936 193.715 180.683 193.465C179.81 192.593 125.376 186.681 125.376 187.459ZM391.22 189.607C377.102 191.305 364.722 192.869 363.711 193.08C362.441 193.345 363.582 195.717 367.381 200.716C370.411 204.704 375.523 213.308 378.742 219.835C381.96 226.362 384.779 231.702 385.006 231.702C385.429 231.702 416.199 190.842 418.022 187.86C418.576 186.954 418.548 186.28 417.96 186.364C417.372 186.449 405.34 187.908 391.22 189.607ZM127.605 259.98C114.653 265.606 104.03 270.739 104 271.385C103.958 272.255 139.881 288.636 152.479 293.489C153.327 293.818 153.801 286.045 153.801 271.751C153.801 257.716 153.313 249.549 152.479 249.628C151.751 249.696 140.559 254.354 127.605 259.98ZM390.289 260.6C391.071 267.689 391.032 275.666 390.185 282.686C389.455 288.731 388.962 293.816 389.087 293.989C389.351 294.35 437.095 273.92 439.872 272.26C441.109 271.521 433.408 267.652 416.075 260.304C401.98 254.329 390.139 249.454 389.758 249.471C389.378 249.489 389.618 254.497 390.289 260.6ZM141.396 333.346C132.467 345.374 125.386 355.437 125.659 355.71C126.26 356.309 179.451 350.283 180.206 349.53C180.5 349.239 177.557 344.384 173.67 338.742C169.782 333.099 164.969 324.657 162.977 319.98C160.983 315.303 158.965 311.476 158.491 311.476C158.017 311.476 150.324 321.318 141.396 333.346ZM381.331 318.045C380.029 321.659 375.238 330.251 370.683 337.141L362.403 349.666L366.511 350.327C374.403 351.598 417.922 356.378 418.283 356.015C418.881 355.411 385.729 311.476 384.674 311.476C384.139 311.476 382.635 314.432 381.331 318.045ZM189.815 389.645C187.956 405.032 186.565 417.757 186.725 417.922C186.955 418.161 230.559 386.284 232.24 384.649C232.48 384.416 227.457 381.785 221.078 378.803C214.697 375.821 206.469 371.134 202.792 368.387C199.116 365.641 195.452 363.005 194.651 362.531C193.65 361.938 192.142 370.393 189.815 389.645ZM338.607 369.368C332.636 373.425 324.16 378.229 319.775 380.042C315.388 381.855 311.963 383.834 312.161 384.44C312.728 386.167 356.036 418.246 356.408 417.215C356.811 416.099 350.471 362.766 349.882 362.311C349.653 362.134 344.579 365.31 338.607 369.368ZM249.609 389.242C249.511 390.903 271.37 440.57 271.946 439.995C272.875 439.071 294.67 388.886 294.272 388.592C294.09 388.456 288.981 388.94 282.921 389.668C275.882 390.513 267.884 390.551 260.776 389.772C254.657 389.102 249.631 388.863 249.609 389.242Z" fill="url(#paint0_linear_29_36)"/>
<circle cx="272" cy="272" r="269.5" stroke="url(#paint1_linear_29_36)" stroke-width="5"/>
<defs>
<linearGradient id="paint0_linear_29_36" x1="466.5" y1="86" x2="66" y2="451.5" gradientUnits="userSpaceOnUse">
<stop stop-color="white"/>
<stop offset="1" stop-color="white" stop-opacity="0"/>
</linearGradient>
<linearGradient id="paint1_linear_29_36" x1="569" y1="3.51264e-05" x2="38.5" y2="521" gradientUnits="userSpaceOnUse">
<stop stop-color="white"/>
<stop offset="1" stop-color="white" stop-opacity="0"/>
</linearGradient>
</defs>
</svg>
