<svg width="53" height="53" viewBox="0 0 53 53" fill="none" xmlns="http://www.w3.org/2000/svg">
<path fill-rule="evenodd" clip-rule="evenodd" d="M25.52 1.77533C23.7178 5.89145 22.9745 7.63648 22.9748 7.75191C22.9748 7.81805 24.5588 7.87213 26.4949 7.87213C29.9299 7.87213 30.0111 7.86215 29.8532 7.45615C29.34 6.13708 26.6707 0.149268 26.5328 0.00741867C26.4421 -0.0857607 25.9865 0.7098 25.52 1.77533ZM13.0596 3.86833C13.1163 4.12561 13.3611 6.06782 13.6038 8.18411C13.8464 10.3004 14.0676 12.0552 14.0954 12.0837C14.1233 12.1122 14.9829 11.5897 16.0056 10.9229C17.0285 10.2561 18.419 9.46887 19.0955 9.17352L20.3257 8.6367L16.8016 6.02081C14.8634 4.58215 13.2053 3.4041 13.1171 3.40264C13.0289 3.40139 13.003 3.61105 13.0596 3.86833ZM36.2168 5.91412C34.3816 7.28248 32.8576 8.4701 32.8303 8.55309C32.8028 8.63608 33.6004 9.09386 34.6029 9.57016C35.6051 10.0465 36.9341 10.8181 37.5562 11.2848C38.1781 11.7516 38.7297 12.0908 38.7818 12.0388C38.8563 11.9645 39.8447 4.20278 39.862 3.55635C39.8708 3.23022 39.4608 3.4954 36.2168 5.91412ZM24.4802 10.92C20.9209 11.3741 18.0707 12.8187 15.3537 15.5463C13.7653 17.141 13.3154 17.7512 12.5032 19.4156C11.9726 20.5023 11.3902 22.0059 11.209 22.7567C10.7381 24.7064 10.7729 28.2936 11.2818 30.278C12.0974 33.4586 14.0972 36.5425 16.6629 38.576C21.9102 42.7349 28.7694 43.1906 34.6027 39.7684C36.1317 38.8713 38.9365 36.0739 39.836 34.5489C42.0256 30.8363 42.6631 26.5373 41.6277 22.4651C39.7402 15.0428 32.1619 9.94038 24.4802 10.92ZM3.37187 13.1646C3.37187 13.2324 4.56075 14.8762 6.01406 16.8178C7.65401 19.0085 8.69296 20.2298 8.75322 20.0374C9.03058 19.1506 10.6011 16.2604 11.332 15.2917C11.7918 14.6825 12.1357 14.1515 12.0959 14.112C11.9581 13.9745 3.37187 13.0419 3.37187 13.1646ZM45.3055 13.5034C43.0785 13.7713 41.1258 14.018 40.9662 14.0513C40.7661 14.0931 40.946 14.4673 41.5452 15.2558C42.0231 15.8849 42.8295 17.2421 43.3373 18.2716C43.8449 19.3012 44.2895 20.1435 44.3254 20.1435C44.3921 20.1435 49.2457 13.6983 49.5332 13.2279C49.6206 13.085 49.6162 12.9787 49.5234 12.992C49.4306 13.0053 47.5327 13.2356 45.3055 13.5034ZM3.72347 24.6041C1.68041 25.4913 0.00480229 26.3011 5.8892e-06 26.403C-0.00666736 26.5402 5.65976 29.1241 7.64692 29.8897C7.78081 29.9415 7.85546 28.7154 7.85546 26.4608C7.85546 24.2469 7.77851 22.9587 7.64692 22.9711C7.53223 22.9817 5.76674 23.7166 3.72347 24.6041ZM45.1587 24.7018C45.282 25.82 45.2759 27.0783 45.1422 28.1856C45.0271 29.1391 44.9493 29.9413 44.9692 29.9685C45.0107 30.0255 52.5418 26.8029 52.9798 26.5411C53.175 26.4244 51.9602 25.8141 49.2261 24.655C47.0028 23.7126 45.1349 22.9437 45.0749 22.9464C45.015 22.9491 45.0528 23.739 45.1587 24.7018ZM5.89874 36.1766C4.49027 38.0739 3.37333 39.6613 3.4165 39.7043C3.51118 39.7987 11.9015 38.8482 12.0206 38.7295C12.0669 38.6835 11.6027 37.9177 10.9896 37.0277C10.3763 36.1377 9.6172 34.806 9.30293 34.0682C8.98846 33.3305 8.67002 32.7269 8.59536 32.7269C8.52049 32.7269 7.307 34.2793 5.89874 36.1766ZM43.7457 33.7631C43.5402 34.3332 42.7845 35.6885 42.0661 36.7752L40.76 38.7509L41.4079 38.8551C42.6529 39.0556 49.5174 39.8096 49.5743 39.7524C49.6688 39.6571 44.4395 32.7269 44.2731 32.7269C44.1886 32.7269 43.9513 33.1932 43.7457 33.7631ZM13.5363 45.0571C13.2431 47.4842 13.0237 49.4915 13.0489 49.5175C13.0852 49.5551 19.9632 44.527 20.2283 44.2691C20.2662 44.2323 19.4738 43.8173 18.4676 43.3468C17.4612 42.8766 16.1632 42.1372 15.5833 41.7039C15.0033 41.2707 14.4255 40.8549 14.2991 40.7802C14.1412 40.6867 13.9033 42.0203 13.5363 45.0571ZM37.0065 41.8587C36.0645 42.4987 34.7276 43.2564 34.0359 43.5423C33.3439 43.8283 32.8036 44.1405 32.8349 44.236C32.9244 44.5085 39.7557 49.5686 39.8143 49.406C39.8779 49.2298 38.8779 40.8173 38.7849 40.7455C38.7489 40.7176 37.9485 41.2185 37.0065 41.8587ZM22.9681 44.9935C22.9526 45.2556 26.4006 53.0899 26.4916 52.9992C26.638 52.8534 30.0759 44.9373 30.0132 44.891C29.9844 44.8695 29.1786 44.9459 28.2226 45.0607C27.1124 45.194 25.8507 45.2 24.7296 45.0771C23.7643 44.9714 22.9716 44.9338 22.9681 44.9935Z" fill="white"/>
</svg>
